<svg xmlns="http://www.w3.org/2000/svg" viewBox="0 0 1440 900" width="1440" height="900" font-family="system-ui, -apple-system, sans-serif">
  <!-- Background -->
  <rect width="1440" height="900" fill="#EDE8DF"/>

  <!-- ═══════════════════════════════════════════════════════════════ -->
  <!-- NAV RAIL  52px wide, espresso -->
  <!-- ═══════════════════════════════════════════════════════════════ -->
  <rect x="0" y="0" width="52" height="900" fill="#3D2B1A"/>

  <!-- App icon -->
  <rect x="10" y="14" width="32" height="32" rx="8" fill="#C8956A"/>
  <text x="26" y="35" text-anchor="middle" font-size="16" fill="#3D2B1A" font-weight="700">H</text>

  <!-- Nav icons — active: Documents -->
  <!-- Documents (active) -->
  <rect x="0" y="72" width="4" height="40" rx="2" fill="#C8956A"/>
  <rect x="10" y="76" width="32" height="32" rx="6" fill="#C8956A" opacity="0.2"/>
  <rect x="20" y="84" width="12" height="2" rx="1" fill="#C8956A"/>
  <rect x="20" y="89" width="12" height="2" rx="1" fill="#C8956A"/>
  <rect x="20" y="94" width="8"  height="2" rx="1" fill="#C8956A"/>

  <!-- Timeline -->
  <rect x="10" y="124" width="32" height="32" rx="6" fill="none"/>
  <rect x="17" y="131" width="18" height="18" rx="2" fill="none" stroke="#8C7B6B" stroke-width="1.5"/>
  <line x1="21" y1="128" x2="21" y2="133" stroke="#8C7B6B" stroke-width="1.5" stroke-linecap="round"/>
  <line x1="29" y1="128" x2="29" y2="133" stroke="#8C7B6B" stroke-width="1.5" stroke-linecap="round"/>

  <!-- Contacts -->
  <rect x="10" y="166" width="32" height="32" rx="6" fill="none"/>
  <circle cx="26" cy="175" r="5" fill="none" stroke="#8C7B6B" stroke-width="1.5"/>
  <path d="M16 190 Q26 183 36 190" fill="none" stroke="#8C7B6B" stroke-width="1.5" stroke-linecap="round"/>

  <!-- Settings (bottom) -->
  <rect x="10" y="854" width="32" height="32" rx="6" fill="none"/>
  <circle cx="26" cy="870" r="6" fill="none" stroke="#8C7B6B" stroke-width="1.5"/>
  <circle cx="26" cy="870" r="2" fill="#8C7B6B"/>

  <!-- ═══════════════════════════════════════════════════════════════ -->
  <!-- DOCUMENT LIST PANEL  300px -->
  <!-- ═══════════════════════════════════════════════════════════════ -->
  <rect x="52" y="0" width="300" height="900" fill="#FAF7F2"/>
  <rect x="351" y="0" width="1" height="900" fill="#D9CFC4"/>

  <!-- Search bar -->
  <rect x="64" y="16" width="276" height="36" rx="8" fill="#EDE8DF" stroke="#D9CFC4" stroke-width="1"/>
  <circle cx="84" cy="34" r="6" fill="none" stroke="#8C7B6B" stroke-width="1.5"/>
  <line x1="88" y1="38" x2="92" y2="42" stroke="#8C7B6B" stroke-width="1.5" stroke-linecap="round"/>
  <text x="100" y="38" font-size="13" fill="#8C7B6B">Search documents…</text>

  <!-- Filter chips -->
  <rect x="64"  y="60" width="60" height="22" rx="11" fill="#C8956A"/>
  <text x="94"  y="75" text-anchor="middle" font-size="11" fill="#FAF7F2" font-weight="600">All</text>
  <rect x="130" y="60" width="72" height="22" rx="11" fill="#EDE8DF" stroke="#D9CFC4" stroke-width="1"/>
  <text x="166" y="75" text-anchor="middle" font-size="11" fill="#8C7B6B">Lab Results</text>
  <rect x="208" y="60" width="70" height="22" rx="11" fill="#EDE8DF" stroke="#D9CFC4" stroke-width="1"/>
  <text x="243" y="75" text-anchor="middle" font-size="11" fill="#8C7B6B">Invoices</text>

  <!-- Section header -->
  <text x="64" y="104" font-size="11" fill="#8C7B6B" font-weight="600" letter-spacing="0.5">RECENT — 2026</text>

  <!-- ── List row 1 (SELECTED) ── -->
  <rect x="52" y="112" width="300" height="72" fill="#EDE0CF"/>
  <rect x="52" y="112" width="3"   height="72" fill="#C8956A"/>
  <rect x="68"  y="122" width="36" height="36" rx="6" fill="#C8956A" opacity="0.15"/>
  <text x="86"  y="146" text-anchor="middle" font-size="18" fill="#C8956A">🧪</text>
  <text x="114" y="137" font-size="13" fill="#2C1F12" font-weight="600">Blood Test Results</text>
  <text x="114" y="153" font-size="11" fill="#8C7B6B">Dr. Chen · 12 Mar 2026</text>
  <rect x="277" y="126" width="58" height="18" rx="9" fill="#DC2626" opacity="0.15"/>
  <text x="306" y="139" text-anchor="middle" font-size="10" fill="#DC2626" font-weight="700">2 FLAGS</text>
  <text x="114" y="168" font-size="10" fill="#8C7B6B">Lab Results · City Medical Centre</text>

  <!-- ── List row 2 ── -->
  <rect x="52" y="184" width="300" height="72" fill="none"/>
  <rect x="351" y="184" width="0" height="0"/>
  <rect x="68"  y="194" width="36" height="36" rx="6" fill="#3D2B1A" opacity="0.08"/>
  <text x="86"  y="218" text-anchor="middle" font-size="18" fill="#8C7B6B">📄</text>
  <text x="114" y="209" font-size="13" fill="#2C1F12" font-weight="500">Physio Invoice — March</text>
  <text x="114" y="225" font-size="11" fill="#8C7B6B">PhysioPlus · 10 Mar 2026</text>
  <text x="114" y="240" font-size="10" fill="#8C7B6B">Invoice · PhysioPlus Clinic</text>
  <line x1="64" y1="256" x2="340" y2="256" stroke="#D9CFC4" stroke-width="1"/>

  <!-- ── List row 3 ── -->
  <rect x="68"  y="264" width="36" height="36" rx="6" fill="#3D2B1A" opacity="0.08"/>
  <text x="86"  y="288" text-anchor="middle" font-size="18" fill="#8C7B6B">💊</text>
  <text x="114" y="279" font-size="13" fill="#2C1F12" font-weight="500">Prescription — Metformin</text>
  <text x="114" y="295" font-size="11" fill="#8C7B6B">Dr. Patel · 05 Mar 2026</text>
  <text x="114" y="310" font-size="10" fill="#8C7B6B">Prescription · Oakwood Surgery</text>
  <line x1="64" y1="326" x2="340" y2="326" stroke="#D9CFC4" stroke-width="1"/>

  <!-- ── List row 4 ── -->
  <rect x="68"  y="334" width="36" height="36" rx="6" fill="#3D2B1A" opacity="0.08"/>
  <text x="86"  y="358" text-anchor="middle" font-size="18" fill="#8C7B6B">🩻</text>
  <text x="114" y="349" font-size="13" fill="#2C1F12" font-weight="500">Chest X-Ray Report</text>
  <text x="114" y="365" font-size="11" fill="#8C7B6B">Radiology Dept · 28 Feb 2026</text>
  <text x="114" y="380" font-size="10" fill="#8C7B6B">Imaging · City Medical Centre</text>
  <line x1="64" y1="396" x2="340" y2="396" stroke="#D9CFC4" stroke-width="1"/>

  <!-- ── List row 5 ── -->
  <rect x="68"  y="404" width="36" height="36" rx="6" fill="#3D2B1A" opacity="0.08"/>
  <text x="86"  y="428" text-anchor="middle" font-size="18" fill="#8C7B6B">📋</text>
  <text x="114" y="419" font-size="13" fill="#2C1F12" font-weight="500">GP Consultation Notes</text>
  <text x="114" y="435" font-size="11" fill="#8C7B6B">Dr. Williams · 14 Feb 2026</text>
  <text x="114" y="450" font-size="10" fill="#8C7B6B">Consultation · Riverside Practice</text>

  <!-- ═══════════════════════════════════════════════════════════════ -->
  <!-- PDF PREVIEW PANEL  flex, ~836px -->
  <!-- ═══════════════════════════════════════════════════════════════ -->
  <rect x="352" y="0" width="836" height="900" fill="#EDE8DF"/>

  <!-- Toolbar -->
  <rect x="352" y="0" width="836" height="48" fill="#FAF7F2" opacity="0.9"/>
  <rect x="352" y="47" width="836" height="1" fill="#D9CFC4"/>

  <!-- Back breadcrumb -->
  <text x="370" y="29" font-size="13" fill="#8C7B6B">← Documents /</text>
  <text x="474" y="29" font-size="13" fill="#2C1F12" font-weight="600">Blood Test Results</text>

  <!-- Toolbar actions -->
  <rect x="980" y="10" width="80" height="28" rx="6" fill="#EDE8DF" stroke="#D9CFC4" stroke-width="1"/>
  <text x="1020" y="28" text-anchor="middle" font-size="12" fill="#8C7B6B">Share</text>
  <rect x="1068" y="10" width="80" height="28" rx="6" fill="#C8956A"/>
  <text x="1108" y="28" text-anchor="middle" font-size="12" fill="#FAF7F2" font-weight="600">Edit Tags</text>

  <!-- Page number indicator -->
  <text x="770" y="29" text-anchor="middle" font-size="12" fill="#8C7B6B">Page 1 of 3</text>

  <!-- PDF page shadow + card -->
  <rect x="430" y="72" width="500" height="706" rx="4" fill="#2C1F12" opacity="0.08"/>
  <rect x="428" y="70" width="500" height="706" rx="4" fill="#FFFFFF"/>

  <!-- PDF content: Blood Test Results document -->
  <text x="628" y="108" text-anchor="middle" font-size="18" fill="#2C1F12" font-weight="700">Blood Test Results</text>
  <line x1="460" y1="116" x2="796" y2="116" stroke="#D9CFC4" stroke-width="1"/>

  <text x="460" y="138" font-size="11" fill="#8C7B6B">Patient: Jane Smith</text>
  <text x="620" y="138" font-size="11" fill="#8C7B6B">DOB: 14 Jun 1985</text>
  <text x="460" y="154" font-size="11" fill="#8C7B6B">Requested by: Dr. Sarah Chen</text>
  <text x="620" y="154" font-size="11" fill="#8C7B6B">Date: 12 March 2026</text>
  <text x="460" y="170" font-size="11" fill="#8C7B6B">Lab: City Medical Centre</text>
  <text x="620" y="170" font-size="11" fill="#8C7B6B">Ref: CMC-2026-38821</text>

  <!-- Table header -->
  <rect x="460" y="185" width="436" height="26" fill="#EDE8DF" rx="3"/>
  <text x="470" y="202" font-size="11" fill="#8C7B6B" font-weight="600">TEST</text>
  <text x="620" y="202" font-size="11" fill="#8C7B6B" font-weight="600">RESULT</text>
  <text x="700" y="202" font-size="11" fill="#8C7B6B" font-weight="600">REFERENCE</text>
  <text x="820" y="202" font-size="11" fill="#8C7B6B" font-weight="600">FLAG</text>

  <!-- Table rows -->
  <!-- WBC -->
  <line x1="460" y1="226" x2="896" y2="226" stroke="#EDE8DF" stroke-width="1"/>
  <text x="470" y="221" font-size="11" fill="#2C1F12">White Blood Cells (WBC)</text>
  <text x="620" y="221" font-size="12" fill="#DC2626" font-weight="700">12.4 × 10⁹/L</text>
  <text x="700" y="221" font-size="11" fill="#8C7B6B">4.0 – 11.0</text>
  <rect x="820" y="210" width="40" height="16" rx="4" fill="#DC2626"/>
  <text x="840" y="222" text-anchor="middle" font-size="10" fill="#FFFFFF" font-weight="700">HIGH</text>

  <!-- RBC -->
  <line x1="460" y1="246" x2="896" y2="246" stroke="#EDE8DF" stroke-width="1"/>
  <text x="470" y="241" font-size="11" fill="#2C1F12">Red Blood Cells (RBC)</text>
  <text x="620" y="241" font-size="11" fill="#2C1F12">4.8 × 10¹²/L</text>
  <text x="700" y="241" font-size="11" fill="#8C7B6B">4.2 – 5.4</text>
  <text x="840" y="241" text-anchor="middle" font-size="10" fill="#8C7B6B">Normal</text>

  <!-- Haemoglobin -->
  <line x1="460" y1="266" x2="896" y2="266" stroke="#EDE8DF" stroke-width="1"/>
  <text x="470" y="261" font-size="11" fill="#2C1F12">Haemoglobin (Hgb)</text>
  <text x="620" y="261" font-size="11" fill="#2C1F12">138 g/L</text>
  <text x="700" y="261" font-size="11" fill="#8C7B6B">120 – 160</text>
  <text x="840" y="261" text-anchor="middle" font-size="10" fill="#8C7B6B">Normal</text>

  <!-- Platelets -->
  <line x1="460" y1="286" x2="896" y2="286" stroke="#EDE8DF" stroke-width="1"/>
  <text x="470" y="281" font-size="11" fill="#2C1F12">Platelets</text>
  <text x="620" y="281" font-size="11" fill="#2C1F12">245 × 10⁹/L</text>
  <text x="700" y="281" font-size="11" fill="#8C7B6B">150 – 400</text>
  <text x="840" y="281" text-anchor="middle" font-size="10" fill="#8C7B6B">Normal</text>

  <!-- Ferritin -->
  <line x1="460" y1="306" x2="896" y2="306" stroke="#EDE8DF" stroke-width="1"/>
  <text x="470" y="301" font-size="11" fill="#2C1F12">Ferritin</text>
  <text x="620" y="301" font-size="12" fill="#D97706" font-weight="700">8 µg/L</text>
  <text x="700" y="301" font-size="11" fill="#8C7B6B">15 – 200</text>
  <rect x="818" y="290" width="36" height="16" rx="4" fill="#D97706"/>
  <text x="836" y="302" text-anchor="middle" font-size="10" fill="#FFFFFF" font-weight="700">LOW</text>

  <!-- Vitamin D -->
  <line x1="460" y1="326" x2="896" y2="326" stroke="#EDE8DF" stroke-width="1"/>
  <text x="470" y="321" font-size="11" fill="#2C1F12">Vitamin D (25-OH)</text>
  <text x="620" y="321" font-size="11" fill="#2C1F12">42 nmol/L</text>
  <text x="700" y="321" font-size="11" fill="#8C7B6B">50 – 125</text>
  <text x="840" y="321" text-anchor="middle" font-size="10" fill="#8C7B6B">Normal</text>

  <!-- CRP -->
  <line x1="460" y1="346" x2="896" y2="346" stroke="#EDE8DF" stroke-width="1"/>
  <text x="470" y="341" font-size="11" fill="#2C1F12">C-Reactive Protein (CRP)</text>
  <text x="620" y="341" font-size="11" fill="#2C1F12">3.2 mg/L</text>
  <text x="700" y="341" font-size="11" fill="#8C7B6B">0.0 – 5.0</text>
  <text x="840" y="341" text-anchor="middle" font-size="10" fill="#8C7B6B">Normal</text>

  <!-- Notes -->
  <rect x="460" y="362" width="436" height="60" rx="4" fill="#EDE8DF"/>
  <text x="472" y="379" font-size="11" fill="#8C7B6B" font-weight="600">CLINICAL NOTES</text>
  <text x="472" y="395" font-size="11" fill="#2C1F12">WBC elevation may indicate infection or inflammation. Recommend repeat test in</text>
  <text x="472" y="410" font-size="11" fill="#2C1F12">2 weeks. Ferritin low — consider iron supplementation. Follow up with GP.</text>

  <!-- Signature block -->
  <text x="460" y="446" font-size="11" fill="#8C7B6B">Authorised by: Dr. Sarah Chen, MBBS, FRCPath</text>
  <text x="460" y="461" font-size="11" fill="#8C7B6B">City Medical Centre Pathology Department</text>

  <!-- ═══════════════════════════════════════════════════════════════ -->
  <!-- AI INSIGHTS PANEL  240px -->
  <!-- ═══════════════════════════════════════════════════════════════ -->
  <rect x="1188" y="0" width="252" height="900" fill="#FAF7F2"/>
  <rect x="1188" y="0" width="1" height="900" fill="#D9CFC4"/>

  <!-- Panel header -->
  <rect x="1188" y="0" width="252" height="48" fill="#EDE8DF"/>
  <rect x="1188" y="47" width="252" height="1" fill="#D9CFC4"/>
  <text x="1314" y="20" text-anchor="middle" font-size="11" fill="#8C7B6B" font-weight="600" letter-spacing="0.5">AI INSIGHTS</text>
  <text x="1314" y="38" text-anchor="middle" font-size="10" fill="#8C7B6B" opacity="0.7">Local · No cloud</text>

  <!-- ── Summary section ── -->
  <text x="1204" y="70" font-size="11" fill="#C8956A" font-weight="700" letter-spacing="0.4">SUMMARY</text>
  <rect x="1200" y="77" width="224" height="88" rx="6" fill="#EDE8DF"/>
  <text x="1212" y="93"  font-size="11" fill="#2C1F12">Your white blood cell count</text>
  <text x="1212" y="108" font-size="11" fill="#2C1F12">is slightly elevated, which</text>
  <text x="1212" y="123" font-size="11" fill="#2C1F12">may suggest your body is</text>
  <text x="1212" y="138" font-size="11" fill="#2C1F12">fighting an infection. Your</text>
  <text x="1212" y="153" font-size="11" fill="#2C1F12">iron stores are also low.</text>

  <!-- ── Flagged Values section ── -->
  <text x="1204" y="184" font-size="11" fill="#C8956A" font-weight="700" letter-spacing="0.4">FLAGGED VALUES</text>
  <!-- WBC flag card -->
  <rect x="1200" y="191" width="224" height="56" rx="6" fill="#FEF2F2"/>
  <rect x="1200" y="191" width="3"   height="56" rx="1" fill="#DC2626"/>
  <text x="1215" y="208" font-size="12" fill="#DC2626" font-weight="700">WBC 12.4 × 10⁹/L</text>
  <rect x="1340" y="196" width="36" height="16" rx="4" fill="#DC2626"/>
  <text x="1358" y="208" text-anchor="middle" font-size="10" fill="#FFFFFF" font-weight="700">HIGH</text>
  <text x="1215" y="224" font-size="11" fill="#8C7B6B">Ref: 4.0 – 11.0 × 10⁹/L</text>
  <text x="1215" y="238" font-size="10" fill="#8C7B6B">Possible infection / inflammation</text>

  <!-- Ferritin flag card -->
  <rect x="1200" y="254" width="224" height="56" rx="6" fill="#FFFBEB"/>
  <rect x="1200" y="254" width="3"   height="56" rx="1" fill="#D97706"/>
  <text x="1215" y="271" font-size="12" fill="#D97706" font-weight="700">Ferritin 8 µg/L</text>
  <rect x="1348" y="259" width="32" height="16" rx="4" fill="#D97706"/>
  <text x="1364" y="271" text-anchor="middle" font-size="10" fill="#FFFFFF" font-weight="700">LOW</text>
  <text x="1215" y="287" font-size="11" fill="#8C7B6B">Ref: 15 – 200 µg/L</text>
  <text x="1215" y="301" font-size="10" fill="#8C7B6B">Consider iron supplementation</text>

  <!-- ── Extracted Details section ── -->
  <text x="1204" y="332" font-size="11" fill="#C8956A" font-weight="700" letter-spacing="0.4">EXTRACTED DETAILS</text>
  <rect x="1200" y="339" width="224" height="130" rx="6" fill="#EDE8DF"/>

  <text x="1212" y="358" font-size="10" fill="#8C7B6B" font-weight="600">DOCTOR</text>
  <text x="1212" y="372" font-size="11" fill="#2C1F12">Dr. Sarah Chen</text>

  <text x="1212" y="392" font-size="10" fill="#8C7B6B" font-weight="600">CLINIC</text>
  <text x="1212" y="406" font-size="11" fill="#2C1F12">City Medical Centre</text>

  <text x="1212" y="426" font-size="10" fill="#8C7B6B" font-weight="600">DATE</text>
  <text x="1212" y="440" font-size="11" fill="#2C1F12">12 March 2026</text>

  <text x="1310" y="358" font-size="10" fill="#8C7B6B" font-weight="600">CATEGORY</text>
  <text x="1310" y="372" font-size="11" fill="#2C1F12">Lab Results</text>

  <text x="1310" y="392" font-size="10" fill="#8C7B6B" font-weight="600">TAGS</text>
  <rect x="1310" y="397" width="44" height="16" rx="8" fill="#C8956A" opacity="0.2"/>
  <text x="1332" y="409" text-anchor="middle" font-size="10" fill="#C8956A" font-weight="600">blood</text>
  <rect x="1358" y="397" width="44" height="16" rx="8" fill="#C8956A" opacity="0.2"/>
  <text x="1380" y="409" text-anchor="middle" font-size="10" fill="#C8956A" font-weight="600">annual</text>

  <!-- ── Related Documents section ── -->
  <text x="1204" y="496" font-size="11" fill="#C8956A" font-weight="700" letter-spacing="0.4">RELATED DOCUMENTS</text>

  <!-- Related doc 1 -->
  <rect x="1200" y="503" width="224" height="52" rx="6" fill="#EDE8DF"/>
  <rect x="1200" y="503" width="3"   height="52" rx="1" fill="#C8956A"/>
  <text x="1215" y="520" font-size="11" fill="#2C1F12" font-weight="500">Blood Test — Sep 2025</text>
  <text x="1215" y="535" font-size="10" fill="#8C7B6B">Previous · WBC normal then</text>
  <text x="1215" y="548" font-size="10" fill="#8C7B6B">Dr. Chen · Lab Results</text>

  <!-- Related doc 2 -->
  <rect x="1200" y="562" width="224" height="52" rx="6" fill="#EDE8DF"/>
  <rect x="1200" y="562" width="3"   height="52" rx="1" fill="#C8956A"/>
  <text x="1215" y="579" font-size="11" fill="#2C1F12" font-weight="500">GP Referral — Haematology</text>
  <text x="1215" y="594" font-size="10" fill="#8C7B6B">Follow-up on elevated WBC</text>
  <text x="1215" y="607" font-size="10" fill="#8C7B6B">Dr. Williams · Consultation</text>

  <!-- ── Theme label ── -->
  <rect x="1200" y="820" width="224" height="60" rx="8" fill="#3D2B1A"/>
  <text x="1312" y="844" text-anchor="middle" font-size="13" fill="#C8956A" font-weight="700" letter-spacing="1">COFFEE</text>
  <text x="1312" y="862" text-anchor="middle" font-size="10" fill="#FAF7F2" opacity="0.7">Warm Cream · Human &amp; Warm</text>

</svg>
